<?xml version="1.0" encoding="utf-8"?>
<!-- Generator: Adobe Illustrator 19.0.0, SVG Export Plug-In . SVG Version: 6.00 Build 0)  -->
<svg version="1.1" id="Layer_1" xmlns="http://www.w3.org/2000/svg" xmlns:xlink="http://www.w3.org/1999/xlink" x="0px" y="0px"
	 viewBox="0 2.9 218 67.1" style="enable-background:new 0 2.9 218 67.1;" xml:space="preserve">
<style type="text/css">
	.st1{fill:#ffffff;}
</style>
<g id="XMLID_5_">
	<polygon id="XMLID_3_" class="st1" points="112.2,2.9 112.2,9.2 99.6,19.7 96.5,16.5 	"/>
	<polygon id="XMLID_2_" class="st1" points="86,16.5 86,22.8 100.7,35.4 120.6,17.6 116.4,14.4 100.7,28 	"/>
	<polygon id="XMLID_1_" class="st1" points="128.9,19.7 128.9,26.2 108.2,43.6 102.8,39.3 102.8,33.8 108.2,38.2 	"/>
</g>
<g id="ENG">
	<path id="XMLID_21_" class="st1" d="M0.8,60.5l1.5-0.1c0.1,0.6,0.2,1.1,0.5,1.5c0.2,0.4,0.7,0.7,1.2,1c0.6,0.2,1.2,0.4,1.9,0.4
		c0.6,0,1.2-0.1,1.6-0.3s0.8-0.4,1-0.8c0.2-0.3,0.3-0.7,0.3-1c0-0.4-0.1-0.7-0.3-1s-0.5-0.6-1-0.8c-0.3-0.1-1-0.3-2.2-0.6
		S3.4,58.3,3,58.1c-0.6-0.3-1-0.7-1.3-1.1c-0.3-0.5-0.4-1-0.4-1.5c0-0.6,0.2-1.2,0.5-1.7s0.9-0.9,1.5-1.2c0.7-0.3,1.4-0.4,2.2-0.4
		c0.9,0,1.7,0.1,2.4,0.4c0.7,0.3,1.2,0.7,1.6,1.3s0.6,1.2,0.6,1.9l-1.5,0.1c-0.1-0.8-0.4-1.3-0.8-1.7c-0.5-0.4-1.2-0.6-2.1-0.6
		c-1,0-1.7,0.2-2.1,0.5c-0.4,0.4-0.7,0.8-0.7,1.3c0,0.4,0.2,0.8,0.5,1.1s1.1,0.6,2.4,0.9C7.1,57.7,8,58,8.5,58.2
		c0.7,0.3,1.2,0.7,1.6,1.2s0.5,1.1,0.5,1.7c0,0.6-0.2,1.3-0.6,1.8c-0.4,0.6-0.9,1-1.6,1.3c-0.7,0.3-1.5,0.5-2.3,0.5
		c-1.1,0-2-0.2-2.8-0.5c-0.7-0.3-1.3-0.8-1.8-1.4C1,62.1,0.8,61.4,0.8,60.5z"/>
	<path id="XMLID_23_" class="st1" d="M18.7,61.6l1.5,0.2c-0.2,0.9-0.7,1.6-1.4,2.1s-1.5,0.7-2.5,0.7c-1.3,0-2.3-0.4-3.1-1.2
		c-0.8-0.8-1.1-1.9-1.1-3.3c0-1.5,0.4-2.6,1.1-3.5s1.8-1.2,3-1.2s2.1,0.4,2.9,1.2c0.7,0.8,1.1,1.9,1.1,3.4c0,0.1,0,0.2,0,0.4h-6.6
		c0.1,1,0.3,1.7,0.8,2.2s1.1,0.8,1.8,0.8c0.5,0,1-0.1,1.4-0.4S18.4,62.2,18.7,61.6z M13.8,59.2h4.9c-0.1-0.7-0.3-1.3-0.6-1.7
		c-0.5-0.6-1.1-0.9-1.9-0.9c-0.7,0-1.3,0.2-1.7,0.7C14.1,57.8,13.8,58.4,13.8,59.2z"/>
	<path id="XMLID_26_" class="st1" d="M28,63.4c-0.6,0.5-1.1,0.8-1.6,1s-1.1,0.3-1.6,0.3c-1,0-1.7-0.2-2.2-0.7s-0.8-1.1-0.8-1.8
		c0-0.4,0.1-0.8,0.3-1.2c0.2-0.4,0.5-0.6,0.8-0.9c0.3-0.2,0.7-0.4,1.1-0.5c0.3-0.1,0.7-0.2,1.3-0.2c1.2-0.1,2.1-0.3,2.7-0.5
		c0-0.2,0-0.3,0-0.4c0-0.6-0.1-1-0.4-1.3c-0.4-0.3-0.9-0.5-1.7-0.5c-0.7,0-1.2,0.1-1.6,0.4c-0.3,0.2-0.6,0.7-0.7,1.3L22,58.2
		c0.1-0.6,0.4-1.1,0.7-1.5s0.7-0.7,1.3-0.9c0.6-0.2,1.2-0.3,2-0.3s1.4,0.1,1.8,0.3s0.8,0.4,1,0.7s0.4,0.6,0.5,1
		c0,0.3,0.1,0.7,0.1,1.4v2c0,1.4,0,2.3,0.1,2.6c0.1,0.4,0.2,0.7,0.4,1.1h-1.6C28.2,64.1,28.1,63.8,28,63.4z M27.9,60
		c-0.5,0.2-1.4,0.4-2.4,0.6c-0.6,0.1-1,0.2-1.3,0.3s-0.5,0.3-0.6,0.5s-0.2,0.4-0.2,0.7c0,0.4,0.2,0.7,0.5,1s0.7,0.4,1.3,0.4
		c0.6,0,1.1-0.1,1.5-0.4s0.8-0.6,1-1c0.2-0.3,0.2-0.8,0.2-1.5V60z"/>
	<path id="XMLID_29_" class="st1" d="M35.1,63.1l0.2,1.3c-0.4,0.1-0.8,0.1-1.1,0.1c-0.5,0-1-0.1-1.3-0.3c-0.3-0.2-0.5-0.4-0.6-0.7
		s-0.2-0.9-0.2-1.8v-5.1H31v-1.2h1.1v-2.2l1.5-0.9v3.1h1.5v1.2h-1.5v5.2c0,0.4,0,0.7,0.1,0.8s0.1,0.2,0.3,0.3
		c0.1,0.1,0.3,0.1,0.5,0.1C34.7,63.2,34.9,63.2,35.1,63.1z"/>
	<path id="XMLID_31_" class="st1" d="M40,63.1l0.2,1.3c-0.4,0.1-0.8,0.1-1.1,0.1c-0.5,0-1-0.1-1.3-0.3c-0.3-0.2-0.5-0.4-0.6-0.7
		S37,62.8,37,61.9v-5.1h-1v-1.2h1v-2.2l1.5-0.9v3.1H40v1.2h-1.5V62c0,0.4,0,0.7,0.1,0.8s0.1,0.2,0.3,0.3c0.1,0.1,0.3,0.1,0.5,0.1
		C39.5,63.2,39.8,63.2,40,63.1z"/>
	<path id="XMLID_33_" class="st1" d="M41.6,64.5V52.3h1.5v12.2C43.1,64.5,41.6,64.5,41.6,64.5z"/>
	<path id="XMLID_35_" class="st1" d="M51.6,61.6l1.5,0.2c-0.2,0.9-0.7,1.6-1.4,2.1s-1.5,0.7-2.5,0.7c-1.3,0-2.3-0.4-3.1-1.2
		c-0.8-0.8-1.1-1.9-1.1-3.3c0-1.5,0.4-2.6,1.1-3.5s1.8-1.2,3-1.2s2.1,0.4,2.9,1.2c0.7,0.8,1.1,1.9,1.1,3.4c0,0.1,0,0.2,0,0.4h-6.6
		c0.1,1,0.3,1.7,0.8,2.2s1.1,0.8,1.8,0.8c0.5,0,1-0.1,1.4-0.4S51.4,62.2,51.6,61.6z M46.7,59.2h4.9c-0.1-0.7-0.3-1.3-0.6-1.7
		c-0.5-0.6-1.1-0.9-1.9-0.9c-0.7,0-1.3,0.2-1.7,0.7C47,57.8,46.8,58.4,46.7,59.2z"/>
	<path id="XMLID_38_" class="st1" d="M69,60.2l1.6,0.4c-0.3,1.3-0.9,2.3-1.8,3s-1.9,1-3.2,1c-1.3,0-2.4-0.3-3.2-0.8
		s-1.4-1.3-1.9-2.3c-0.4-1-0.6-2.1-0.6-3.3c0-1.3,0.2-2.4,0.7-3.3c0.5-0.9,1.2-1.7,2.1-2.1c0.9-0.5,1.9-0.7,3-0.7
		c1.2,0,2.2,0.3,3.1,0.9c0.8,0.6,1.4,1.5,1.7,2.6L68.9,56c-0.3-0.9-0.7-1.5-1.2-1.9s-1.2-0.6-2-0.6c-0.9,0-1.7,0.2-2.3,0.7
		c-0.6,0.4-1.1,1-1.3,1.8c-0.3,0.8-0.4,1.5-0.4,2.3c0,1,0.2,1.9,0.5,2.7s0.8,1.3,1.4,1.7c0.6,0.4,1.3,0.6,2.1,0.6
		c0.9,0,1.7-0.3,2.3-0.8C68.4,62,68.8,61.2,69,60.2z"/>
	<path id="XMLID_40_" class="st1" d="M72,60c0-1.6,0.5-2.8,1.4-3.6c0.8-0.7,1.7-1,2.8-1c1.2,0,2.2,0.4,3,1.2s1.2,1.9,1.2,3.3
		c0,1.1-0.2,2-0.5,2.7s-0.8,1.2-1.5,1.5c-0.6,0.4-1.4,0.5-2.1,0.5c-1.2,0-2.2-0.4-3-1.2C72.4,62.7,72,61.5,72,60z M73.6,60
		c0,1.1,0.2,2,0.7,2.5s1.1,0.8,1.9,0.8c0.7,0,1.4-0.3,1.9-0.8s0.7-1.4,0.7-2.6c0-1.1-0.2-1.9-0.7-2.5s-1.1-0.8-1.8-0.8
		c-0.7,0-1.4,0.3-1.9,0.8S73.6,58.9,73.6,60z"/>
	<path id="XMLID_43_" class="st1" d="M82.2,64.5v-8.8h1.3v1.2c0.6-1,1.6-1.5,2.8-1.5c0.5,0,1,0.1,1.5,0.3c0.4,0.2,0.8,0.4,1,0.8
		c0.2,0.3,0.4,0.7,0.5,1.1c0.1,0.3,0.1,0.8,0.1,1.5v5.4h-1.5v-5.4c0-0.6-0.1-1.1-0.2-1.4c-0.1-0.3-0.3-0.5-0.6-0.7s-0.6-0.3-1-0.3
		c-0.6,0-1.2,0.2-1.6,0.6c-0.5,0.4-0.7,1.2-0.7,2.3v4.8h-1.6V64.5z"/>
	<path id="XMLID_45_" class="st1" d="M91.2,61.8l1.5-0.2c0.1,0.6,0.3,1,0.7,1.4c0.4,0.3,0.9,0.5,1.6,0.5s1.2-0.1,1.5-0.4
		s0.5-0.6,0.5-1c0-0.3-0.1-0.6-0.4-0.8c-0.2-0.1-0.7-0.3-1.5-0.5c-1.1-0.3-1.9-0.5-2.3-0.7s-0.7-0.5-1-0.8c-0.2-0.4-0.3-0.8-0.3-1.2
		s0.1-0.8,0.3-1.1s0.4-0.6,0.7-0.8c0.2-0.2,0.5-0.3,1-0.4s0.8-0.2,1.3-0.2c0.7,0,1.3,0.1,1.8,0.3s0.9,0.5,1.2,0.8
		c0.2,0.3,0.4,0.8,0.5,1.4l-1.5,0.2c-0.1-0.5-0.3-0.8-0.6-1.1s-0.8-0.4-1.3-0.4c-0.7,0-1.2,0.1-1.5,0.3S93,57.6,93,57.9
		c0,0.2,0.1,0.4,0.2,0.5c0.1,0.2,0.3,0.3,0.6,0.4c0.1,0.1,0.6,0.2,1.3,0.4c1.1,0.3,1.8,0.5,2.2,0.7s0.7,0.4,1,0.8s0.4,0.8,0.4,1.3
		s-0.1,1-0.4,1.4s-0.7,0.8-1.3,1c-0.5,0.2-1.2,0.4-1.9,0.4c-1.1,0-2-0.2-2.6-0.7S91.4,62.8,91.2,61.8z"/>
	<path id="XMLID_47_" class="st1" d="M106.3,64.5v-1.3c-0.7,1-1.6,1.5-2.8,1.5c-0.5,0-1-0.1-1.5-0.3s-0.8-0.4-1-0.8
		s-0.4-0.7-0.5-1.1c-0.1-0.3-0.1-0.8-0.1-1.4v-5.5h1.5v4.9c0,0.8,0,1.3,0.1,1.6c0.1,0.4,0.3,0.7,0.6,0.9c0.3,0.2,0.7,0.3,1.1,0.3
		s0.9-0.1,1.3-0.3s0.7-0.5,0.8-0.9s0.2-1,0.2-1.7v-4.7h1.5v8.8H106.3z"/>
	<path id="XMLID_49_" class="st1" d="M110.1,64.5V52.3h1.5v12.2C111.6,64.5,110.1,64.5,110.1,64.5z"/>
	<path id="XMLID_51_" class="st1" d="M117.3,63.1l0.2,1.3c-0.4,0.1-0.8,0.1-1.1,0.1c-0.5,0-1-0.1-1.3-0.3c-0.3-0.2-0.5-0.4-0.6-0.7
		s-0.2-0.9-0.2-1.8v-5.1h-1.1v-1.2h1.1v-2.2l1.5-0.9v3.1h1.5v1.2h-1.5v5.2c0,0.4,0,0.7,0.1,0.8s0.1,0.2,0.3,0.3
		c0.1,0.1,0.3,0.1,0.5,0.1C116.8,63.2,117.1,63.2,117.3,63.1z"/>
	<path id="XMLID_53_" class="st1" d="M119,54v-1.7h1.5V54H119z M119,64.5v-8.8h1.5v8.8H119z"/>
	<path id="XMLID_56_" class="st1" d="M122.9,64.5v-8.8h1.3v1.2c0.6-1,1.6-1.5,2.8-1.5c0.5,0,1,0.1,1.5,0.3c0.4,0.2,0.8,0.4,1,0.8
		c0.2,0.3,0.4,0.7,0.5,1.1c0.1,0.3,0.1,0.8,0.1,1.5v5.4h-1.5v-5.4c0-0.6-0.1-1.1-0.2-1.4c-0.1-0.3-0.3-0.5-0.6-0.7s-0.6-0.3-1-0.3
		c-0.6,0-1.2,0.2-1.6,0.6c-0.5,0.4-0.7,1.2-0.7,2.3v4.8h-1.6V64.5z"/>
	<path id="XMLID_58_" class="st1" d="M132.3,65.2l1.5,0.2c0.1,0.4,0.2,0.8,0.5,1c0.4,0.3,0.9,0.4,1.5,0.4c0.7,0,1.2-0.1,1.6-0.4
		s0.6-0.7,0.8-1.2c0.1-0.3,0.1-0.9,0.1-1.9c-0.7,0.8-1.5,1.2-2.4,1.2c-1.2,0-2.1-0.4-2.8-1.3s-1-1.9-1-3.1c0-0.8,0.2-1.6,0.5-2.3
		s0.7-1.3,1.3-1.6s1.3-0.6,2-0.6c1,0,1.9,0.4,2.6,1.3v-1.1h1.4v7.6c0,1.4-0.1,2.3-0.4,2.9c-0.3,0.6-0.7,1-1.3,1.4
		c-0.6,0.3-1.4,0.5-2.2,0.5c-1.1,0-1.9-0.2-2.5-0.7C132.5,66.8,132.2,66.1,132.3,65.2z M133.5,59.9c0,1.2,0.2,2,0.7,2.5
		s1,0.8,1.7,0.8s1.3-0.3,1.7-0.8s0.7-1.4,0.7-2.5s-0.2-1.9-0.7-2.4s-1.1-0.8-1.7-0.8c-0.7,0-1.2,0.3-1.7,0.8S133.5,58.8,133.5,59.9z
		"/>
	<path id="XMLID_61_" class="st1" d="M147.2,64.5V52.3h2.4l2.9,8.6c0.3,0.8,0.5,1.4,0.6,1.8c0.1-0.4,0.4-1.1,0.6-2l2.9-8.5h2.2v12.2
		h-1.6V54.3l-3.5,10.2h-1.5l-3.5-10.4v10.4C148.7,64.5,147.2,64.5,147.2,64.5z"/>
	<path id="XMLID_63_" class="st1" d="M161.3,67.8l-0.2-1.4c0.3,0.1,0.6,0.1,0.9,0.1c0.3,0,0.6-0.1,0.8-0.2c0.2-0.1,0.4-0.3,0.5-0.5
		c0.1-0.1,0.2-0.5,0.5-1.1c0-0.1,0.1-0.2,0.1-0.4l-3.3-8.8h1.6l1.8,5.1c0.2,0.6,0.5,1.3,0.6,2c0.2-0.7,0.4-1.4,0.6-2l1.9-5.1h1.5
		l-3.4,9c-0.4,1-0.6,1.6-0.8,2c-0.3,0.5-0.6,0.9-0.9,1.1c-0.3,0.2-0.8,0.3-1.2,0.3C162,68,161.7,68,161.3,67.8z"/>
	<path id="XMLID_65_" class="st1" d="M175.8,63.4c-0.6,0.5-1.1,0.8-1.6,1s-1.1,0.3-1.6,0.3c-1,0-1.7-0.2-2.2-0.7s-0.8-1.1-0.8-1.8
		c0-0.4,0.1-0.8,0.3-1.2s0.5-0.6,0.8-0.9s0.7-0.4,1.1-0.5c0.3-0.1,0.7-0.2,1.3-0.2c1.2-0.1,2.1-0.3,2.7-0.5c0-0.2,0-0.3,0-0.4
		c0-0.6-0.1-1-0.4-1.3c-0.4-0.3-0.9-0.5-1.7-0.5c-0.7,0-1.2,0.1-1.6,0.4s-0.6,0.7-0.7,1.3l-1.5-0.2c0.1-0.6,0.4-1.1,0.7-1.5
		s0.7-0.7,1.3-0.9s1.2-0.3,2-0.3s1.4,0.1,1.8,0.3c0.5,0.2,0.8,0.4,1,0.7s0.4,0.6,0.5,1c0,0.3,0.1,0.7,0.1,1.4v2c0,1.4,0,2.3,0.1,2.6
		s0.2,0.7,0.4,1.1h-1.6C175.9,64.1,175.8,63.8,175.8,63.4z M175.7,60c-0.5,0.2-1.4,0.4-2.4,0.6c-0.6,0.1-1,0.2-1.3,0.3
		s-0.5,0.3-0.6,0.5s-0.2,0.4-0.2,0.7c0,0.4,0.2,0.7,0.5,1s0.7,0.4,1.3,0.4s1.1-0.1,1.5-0.4c0.4-0.3,0.8-0.6,1-1
		c0.2-0.3,0.2-0.8,0.2-1.5V60z"/>
	<path id="XMLID_68_" class="st1" d="M179.7,64.5v-8.8h1.3v1.2c0.6-1,1.6-1.5,2.8-1.5c0.5,0,1,0.1,1.5,0.3c0.4,0.2,0.8,0.4,1,0.8
		c0.2,0.3,0.4,0.7,0.5,1.1c0.1,0.3,0.1,0.8,0.1,1.5v5.4h-1.5v-5.4c0-0.6-0.1-1.1-0.2-1.4c-0.1-0.3-0.3-0.5-0.6-0.7s-0.6-0.3-1-0.3
		c-0.6,0-1.2,0.2-1.6,0.6c-0.5,0.4-0.7,1.2-0.7,2.3v4.8h-1.6V64.5z"/>
	<path id="XMLID_70_" class="st1" d="M189.3,64.5v-8.8h1.3v1.2c0.3-0.4,0.6-0.8,1.1-1c0.5-0.3,1-0.4,1.6-0.4c0.7,0,1.2,0.1,1.6,0.4
		c0.4,0.3,0.7,0.6,0.9,1.1c0.7-1,1.6-1.5,2.7-1.5c0.9,0,1.5,0.2,2,0.7s0.7,1.2,0.7,2.2v6.1h-1.5v-5.6c0-0.6,0-1-0.1-1.3
		s-0.3-0.5-0.5-0.6c-0.3-0.2-0.6-0.2-0.9-0.2c-0.6,0-1.1,0.2-1.5,0.6s-0.6,1.1-0.6,2v5.1h-1.5v-5.7c0-0.7-0.1-1.2-0.4-1.5
		s-0.6-0.5-1.2-0.5c-0.4,0-0.8,0.1-1.2,0.3s-0.6,0.5-0.8,1c-0.2,0.4-0.2,1-0.2,1.8v4.6C190.8,64.5,189.3,64.5,189.3,64.5z"/>
	<path id="XMLID_72_" class="st1" d="M209.4,63.4c-0.6,0.5-1.1,0.8-1.6,1s-1.1,0.3-1.6,0.3c-1,0-1.7-0.2-2.2-0.7s-0.8-1.1-0.8-1.8
		c0-0.4,0.1-0.8,0.3-1.2s0.5-0.6,0.8-0.9s0.7-0.4,1.1-0.5c0.3-0.1,0.7-0.2,1.3-0.2c1.2-0.1,2.1-0.3,2.7-0.5c0-0.2,0-0.3,0-0.4
		c0-0.6-0.1-1-0.4-1.3c-0.4-0.3-0.9-0.5-1.7-0.5c-0.7,0-1.2,0.1-1.6,0.4s-0.6,0.7-0.7,1.3l-1.5-0.2c0.1-0.6,0.4-1.1,0.7-1.5
		s0.7-0.7,1.3-0.9s1.2-0.3,2-0.3s1.4,0.1,1.8,0.3c0.5,0.2,0.8,0.4,1,0.7s0.4,0.6,0.5,1c0,0.3,0.1,0.7,0.1,1.4v2c0,1.4,0,2.3,0.1,2.6
		s0.2,0.7,0.4,1.1h-1.6C209.5,64.1,209.4,63.8,209.4,63.4z M209.3,60c-0.5,0.2-1.4,0.4-2.4,0.6c-0.6,0.1-1,0.2-1.3,0.3
		s-0.5,0.3-0.6,0.5s-0.2,0.4-0.2,0.7c0,0.4,0.2,0.7,0.5,1s0.7,0.4,1.3,0.4s1.1-0.1,1.5-0.4c0.4-0.3,0.8-0.6,1-1
		c0.2-0.3,0.2-0.8,0.2-1.5V60z"/>
	<path id="XMLID_75_" class="st1" d="M213.2,64.5v-8.8h1.3V57c0.3-0.6,0.7-1,1-1.2s0.6-0.3,1-0.3c0.5,0,1,0.2,1.5,0.5l-0.5,1.4
		c-0.4-0.2-0.7-0.3-1.1-0.3c-0.3,0-0.6,0.1-0.9,0.3s-0.4,0.5-0.6,0.8c-0.2,0.5-0.3,1.1-0.3,1.7v4.6H213.2z"/>
</g>
</svg>
